<svg width="39" height="38" viewBox="0 0 39 38" fill="none" xmlns="http://www.w3.org/2000/svg">
<path fill-rule="evenodd" clip-rule="evenodd" d="M19.012 21.7441L24.7407 27.4567L22.45 29.7409H22.3432L19.012 26.4191L15.6807 29.7409H10.9925L19.012 21.7441ZM8.28247 22.4701V22.4473L11.6557 19.0836L8.28247 15.7199V11.045L16.3401 19.0798L10.6151 24.7962L8.28247 22.4701ZM21.68 19.0836L27.3668 13.4129L29.7109 15.7503L26.3682 19.0836L29.8253 22.5309V27.1792L29.8139 27.1906L21.68 19.0836ZM15.6578 8.42628L13.3251 10.7524L19.012 16.4231L27.0314 8.42628H22.3432L19.012 11.7481L15.6807 8.42628H15.6578ZM19.0539 38C29.5775 38 38.1078 29.4939 38.1078 19C38.1078 8.5061 29.5775 0 19.0539 0C8.53022 0 0 8.5061 0 19C0 29.4939 8.53022 38 19.0539 38Z" fill="#3864FF"/>
</svg>
