<svg width="155" height="38" viewBox="0 0 155 38" fill="none" xmlns="http://www.w3.org/2000/svg">
<path fill-rule="evenodd" clip-rule="evenodd" d="M19.012 21.7441L24.7407 27.4567L22.45 29.7409H22.3432L19.012 26.4191L15.6807 29.7409H10.9925L19.012 21.7441ZM8.28247 22.4701V22.4473L11.6557 19.0836L8.28247 15.7199V11.045L16.3401 19.0798L10.6151 24.7962L8.28247 22.4701ZM21.68 19.0836L27.3668 13.4129L29.7109 15.7503L26.3682 19.0836L29.8253 22.5309V27.1792L29.8139 27.1906L21.68 19.0836ZM15.6578 8.42628L13.3251 10.7523L19.012 16.4231L27.0314 8.42628H22.3432L19.012 11.7481L15.6807 8.42628H15.6578ZM19.0539 38C29.5775 38 38.1078 29.4939 38.1078 19C38.1078 8.5061 29.5775 0 19.0539 0C8.53022 0 0 8.5061 0 19C0 29.4939 8.53022 38 19.0539 38Z" fill="#3864FF"/>
<path d="M87.0898 13.1278H93.0091C94.9492 13.1278 95.8411 13.812 95.8411 15.3589C95.8411 16.9362 94.9454 17.6203 92.8872 17.6203H87.0898V13.1278ZM87.0898 21.2767H93.6342C95.6315 21.2767 96.4662 22.0216 96.4662 23.6863C96.4662 25.3511 95.6315 26.096 93.6342 26.096H87.0898V21.2767ZM93.6342 30.0184C98.3758 30.0184 100.404 28.2929 100.404 24.2793C100.404 21.7518 99.5383 20.087 97.8079 19.2547C99.0885 18.3919 99.7479 16.9058 99.7479 14.766C99.7479 10.8702 97.6897 9.20544 93.0091 9.20544H82.8857V30.0222H93.6342V30.0184Z" fill="#293247"/>
<path d="M105.473 9.20163H101.536V30.0184H105.473V9.20163Z" fill="#293247"/>
<path d="M110.493 22.2876C110.493 19.2242 111.716 17.9472 114.579 17.9472C117.441 17.9472 118.665 19.2242 118.665 22.2876C118.665 25.2902 117.441 26.6281 114.579 26.6281C111.716 26.6281 110.493 25.2902 110.493 22.2876ZM108.492 16.1912C107.211 17.4683 106.582 19.4941 106.582 22.2876C106.582 27.909 108.968 30.2882 114.575 30.2882C120.182 30.2882 122.598 27.909 122.598 22.2876C122.598 19.4941 121.973 17.4683 120.689 16.1912C119.404 14.9142 117.376 14.287 114.575 14.287C111.773 14.287 109.746 14.9104 108.492 16.1912Z" fill="#293247"/>
<path d="M131.353 30.2845C136.274 30.2845 138.629 28.3803 139.079 23.979H135.203C134.814 25.735 133.564 26.6243 131.445 26.6243C128.7 26.6243 127.507 25.2865 127.507 22.2839C127.507 19.2205 128.7 17.9434 131.445 17.9434C133.621 17.9434 134.757 18.7149 135.203 20.5887H139.079C138.633 16.1874 136.274 14.2833 131.353 14.2833C125.956 14.2833 123.601 16.6929 123.601 22.2839C123.601 27.9052 125.895 30.2845 131.353 30.2845Z" fill="#293247"/>
<path d="M143.996 30.0184V23.9828H145.277L150.167 30.0184H155L148.559 22.109L154.314 14.5531H149.603L145.22 20.3227H143.996V9.20163H140.059V30.0184H143.996Z" fill="#293247"/>
<path d="M50.2208 19.4409C50.2208 14.4581 51.5663 12.3107 55.3512 12.3107C59.2275 12.3107 60.451 14.3935 60.451 19.4409C60.451 24.4237 59.2275 26.5711 55.3512 26.5711C51.5663 26.5711 50.2208 24.3971 50.2208 19.4409ZM55.355 8.59732C48.7229 8.59732 46.2568 11.828 46.2568 19.4409C46.2568 27.0234 48.7229 30.2845 55.355 30.2845C62.0175 30.2845 64.4264 27.0538 64.4264 19.4409C64.4226 11.8318 62.0175 8.59732 55.355 8.59732Z" fill="#293247"/>
<path d="M68.9088 30.0146L72.7851 25.0926L76.6615 30.0146H81.6317L75.3312 22.1014L81.5097 14.3061H76.57L72.7851 19.1102L69.0003 14.3061H64.03L70.239 22.1014L63.9385 30.0146H68.9088Z" fill="#293247"/>
</svg>
