<svg width="14" height="14" viewBox="0 0 14 14" fill="none" xmlns="http://www.w3.org/2000/svg">
<path d="M13.4308 1.39831C13.4304 1.34369 13.4158 1.29025 13.3887 1.24379C13.3616 1.19733 13.3229 1.15963 13.277 1.1348C13.2311 1.10996 13.1796 1.09893 13.1281 1.10292C13.0767 1.1069 13.0273 1.12575 12.9852 1.1574L11.8785 1.99742L11.7914 2.06386C10.5988 0.803725 8.96203 0.0157471 7.14835 0.0157471C3.51112 0.0157471 0.552177 3.14913 0.552177 7.00011C0.552177 10.8511 3.5113 13.9845 7.14835 13.9845C8.22839 13.9847 9.29195 13.704 10.2456 13.1672C11.1992 12.6303 12.0137 11.8537 12.6175 10.9055C12.6419 10.8675 12.6589 10.8248 12.6677 10.7798C12.6764 10.7348 12.6767 10.6885 12.6684 10.6434C12.6602 10.5983 12.6437 10.5554 12.6198 10.517C12.5959 10.4787 12.565 10.4458 12.5291 10.4201L10.8789 9.20751C10.8012 9.15254 10.7062 9.13231 10.6146 9.15122C10.5229 9.17013 10.442 9.22664 10.3896 9.30844C9.66006 10.4503 8.45131 11.132 7.15449 11.132C5.0025 11.132 3.25157 9.27848 3.25157 7.0005C3.25157 4.72252 5.0025 2.86899 7.15449 2.86899C8.06273 2.86899 8.89574 3.20334 9.55895 3.75613L9.37258 3.89807L8.26512 4.7379C8.22335 4.76996 8.19071 4.81354 8.17074 4.8639C8.15077 4.91426 8.14424 4.96946 8.15186 5.02348C8.15949 5.07749 8.18098 5.12826 8.21398 5.17023C8.24699 5.21221 8.29024 5.24378 8.33904 5.26151L13.0768 6.97053C13.1627 7.00227 13.2567 6.9869 13.3315 6.93051C13.4058 6.87334 13.4487 6.78325 13.4483 6.68783L13.4308 1.39831Z" fill="#3864FF"/>
</svg>
