<svg width="24" height="24" viewBox="0 0 24 24" fill="none" xmlns="http://www.w3.org/2000/svg">
<path opacity="0.4" d="M9.69995 17.4932H1.80932C0.810663 17.4932 0 18.3892 0 19.493C0 20.5953 0.810663 21.4928 1.80932 21.4928H9.69995C10.6986 21.4928 11.5093 20.5953 11.5093 19.493C11.5093 18.3892 10.6986 17.4932 9.69995 17.4932Z" fill="#A4A9B7"/>
<path opacity="0.4" d="M24 4.56105C24 3.45873 23.1893 2.56273 22.192 2.56273H14.3014C13.3027 2.56273 12.4921 3.45873 12.4921 4.56105C12.4921 5.66484 13.3027 6.56084 14.3014 6.56084H22.192C23.1893 6.56084 24 5.66484 24 4.56105Z" fill="#A4A9B7"/>
<path d="M8.25329 4.56106C8.25329 7.08106 6.40664 9.12359 4.12665 9.12359C1.84799 9.12359 0 7.08106 0 4.56106C0 2.04253 1.84799 0 4.12665 0C6.40664 0 8.25329 2.04253 8.25329 4.56106Z" fill="#A4A9B7"/>
<path d="M24 19.4389C24 21.9575 22.1533 24 19.8733 24C17.5947 24 15.7467 21.9575 15.7467 19.4389C15.7467 16.9189 17.5947 14.8764 19.8733 14.8764C22.1533 14.8764 24 16.9189 24 19.4389Z" fill="#A4A9B7"/>
</svg>
