<svg width="24" height="24" viewBox="0 0 24 24" fill="none" xmlns="http://www.w3.org/2000/svg">
<path opacity="0.4" d="M9.69995 17.4932H1.80932C0.810663 17.4932 0 18.3892 0 19.493C0 20.5953 0.810663 21.4928 1.80932 21.4928H9.69995C10.6986 21.4928 11.5093 20.5953 11.5093 19.493C11.5093 18.3892 10.6986 17.4932 9.69995 17.4932Z" fill="#3864FF"/>
<path opacity="0.4" d="M23.9999 4.56105C23.9999 3.45873 23.1892 2.56273 22.1919 2.56273H14.3013C13.3026 2.56273 12.4919 3.45873 12.4919 4.56105C12.4919 5.66484 13.3026 6.56084 14.3013 6.56084H22.1919C23.1892 6.56084 23.9999 5.66484 23.9999 4.56105Z" fill="#3864FF"/>
<path d="M8.25329 4.56106C8.25329 7.08106 6.40664 9.12359 4.12665 9.12359C1.84799 9.12359 0 7.08106 0 4.56106C0 2.04253 1.84799 0 4.12665 0C6.40664 0 8.25329 2.04253 8.25329 4.56106Z" fill="#3864FF"/>
<path d="M23.9999 19.4389C23.9999 21.9575 22.1532 24 19.8732 24C17.5946 24 15.7466 21.9575 15.7466 19.4389C15.7466 16.9189 17.5946 14.8764 19.8732 14.8764C22.1532 14.8764 23.9999 16.9189 23.9999 19.4389Z" fill="#3864FF"/>
</svg>
